<svg width="33" height="41" viewBox="0 0 33 41" fill="none" xmlns="http://www.w3.org/2000/svg">
<path fill-rule="evenodd" clip-rule="evenodd" d="M20.7409 0.987912C21.5239 -0.0223578 22.9491 -0.296812 24.0721 0.346388L31.702 4.71629C33.3781 5.6762 33.4441 8.0392 31.8235 9.06196L20.9378 15.9317L22.0913 16.0998C24.3416 16.4277 25.115 19.258 23.3291 20.6301L13.4452 28.224C11.0945 30.0301 8.00965 27.0766 9.76502 24.7005L12.9451 20.3958L11.1878 20.8589C8.81052 21.4853 6.95989 18.7686 8.45223 16.8431L20.7409 0.987912ZM22.8685 2.91393L11.2445 17.9116L12.9721 17.4564C15.3209 16.8375 17.1726 19.4904 15.7428 21.4258L13.2893 24.7469L21.0299 18.7997L19.7811 18.6177C17.4167 18.2732 16.732 15.2178 18.7358 13.9532L29.8722 6.92516L22.8685 2.91393ZM4.71301 12.1776C5.49695 12.2867 6.04811 13.0019 5.94407 13.7749L2.87916 36.5491C2.71039 37.8032 4.17039 38.6394 5.18082 37.8674L23.5305 23.8472C24.1534 23.3713 25.0533 23.4872 25.5405 24.1061C26.0278 24.7251 25.9178 25.6126 25.2949 26.0885L6.94526 40.1087C3.91395 42.4248 -0.466053 39.9162 0.0402607 36.154L3.10518 13.3798C3.20922 12.6067 3.92907 12.0685 4.71301 12.1776ZM15.373 5.22889C16.1636 5.21954 16.7916 4.57909 16.7755 3.7984C16.7595 3.01771 16.1056 2.39242 15.3149 2.40177C10.9547 2.45333 6.80474 4.53396 4.56183 8.3877C4.16926 9.06222 4.40753 9.92775 5.09402 10.3209C5.78051 10.7141 6.65527 10.486 7.04784 9.81151C8.73238 6.91714 11.8952 5.27001 15.373 5.22889ZM29.986 13.8282C29.8275 13.062 29.0709 12.5627 28.2961 12.7129C27.5214 12.8631 27.0218 13.606 27.1804 14.3722C27.6328 16.5578 27.334 18.8094 26.1901 20.7749C25.7975 21.4494 26.0358 22.3149 26.7223 22.7081C27.4088 23.1013 28.2835 22.8732 28.6761 22.1987C30.1916 19.5947 30.5671 16.6358 29.986 13.8282Z" fill="#BEAED2"/>
</svg>
