<svg width="33" height="32" viewBox="0 0 33 32" fill="none" xmlns="http://www.w3.org/2000/svg">
<path fill-rule="evenodd" clip-rule="evenodd" d="M5 3H10C11.1046 3 12 3.89543 12 5V10C12 11.1046 11.1046 12 10 12H5C3.89543 12 3 11.1046 3 10V5C3 3.89543 3.89543 3 5 3ZM0 5C0 2.23858 2.23858 0 5 0H10C12.7614 0 15 2.23858 15 5V10C15 12.7614 12.7614 15 10 15H5C2.23858 15 0 12.7614 0 10V5ZM23 3H28C29.1046 3 30 3.89543 30 5V10C30 11.1046 29.1046 12 28 12H23C21.8954 12 21 11.1046 21 10V5C21 3.89543 21.8954 3 23 3ZM18 5C18 2.23858 20.2386 0 23 0H28C30.7614 0 33 2.23858 33 5V10C33 12.7614 30.7614 15 28 15H23C20.2386 15 18 12.7614 18 10V5ZM28 20H23C21.8954 20 21 20.8954 21 22V27C21 28.1046 21.8954 29 23 29H28C29.1046 29 30 28.1046 30 27V22C30 20.8954 29.1046 20 28 20ZM23 17C20.2386 17 18 19.2386 18 22V27C18 29.7614 20.2386 32 23 32H28C30.7614 32 33 29.7614 33 27V22C33 19.2386 30.7614 17 28 17H23ZM5 20H10C11.1046 20 12 20.8954 12 22V27C12 28.1046 11.1046 29 10 29H5C3.89543 29 3 28.1046 3 27V22C3 20.8954 3.89543 20 5 20ZM0 22C0 19.2386 2.23858 17 5 17H10C12.7614 17 15 19.2386 15 22V27C15 29.7614 12.7614 32 10 32H5C2.23858 32 0 29.7614 0 27V22Z" fill="#BEAED2"/>
</svg>
