<svg width="35" height="38" viewBox="0 0 35 38" fill="none" xmlns="http://www.w3.org/2000/svg">
<path fill-rule="evenodd" clip-rule="evenodd" d="M1.63916 16.1057L1.64007 16.1086L5.78455 29.4311C7.2494 34.1411 7.98216 36.4964 9.95026 37.5178C11.9185 38.5395 14.3539 37.8286 19.2246 36.4068L24.3906 34.8987C29.2618 33.4772 31.6969 32.7663 32.7549 30.8614C33.8129 28.9569 33.0807 26.6025 31.6165 21.8944V21.8943L31.6156 21.8914L27.4714 8.56889C26.0066 3.85894 25.2738 1.50394 23.3054 0.482231C21.3372 -0.539483 18.9017 0.171411 14.031 1.59319L8.86474 3.10132C3.99388 4.52278 1.55842 5.23368 0.500447 7.13863C-0.557308 9.0431 0.17492 11.3975 1.63916 16.1057ZM13.582 8.93682C16.3554 8.19207 18.8004 8.24633 20.9169 9.09961C23.0536 9.9475 24.3224 11.0921 24.7234 12.5333C24.7729 12.711 24.7465 12.8878 24.6443 13.0638C24.5566 13.2147 24.4324 13.3117 24.2716 13.3548L18.2425 14.9739C17.7802 15.098 17.3115 15.0435 16.8362 14.8104C16.361 14.5773 15.8018 14.5471 15.1587 14.7198C14.194 14.9788 13.7886 15.3848 13.9424 15.9376C14.0248 16.2337 14.3246 16.4185 14.8418 16.4918C15.3791 16.5597 16.3128 16.4999 17.643 16.3125C20.7418 15.8835 23.0644 16.0024 24.6107 16.6693C26.1716 17.3111 27.235 18.6488 27.8008 20.6823C28.3612 22.6961 27.8753 24.5983 26.3432 26.3889C24.8258 28.1544 22.5497 29.4446 19.515 30.2595C16.4803 31.0744 13.9285 31.1019 11.8595 30.3419C9.79055 29.5819 8.5116 28.3234 8.02268 26.5662C7.97324 26.3886 7.99233 26.2243 8.07995 26.0735C8.18218 25.8975 8.32373 25.7852 8.5046 25.7366L14.2323 24.1986C14.6544 24.0852 15.1716 24.1585 15.7839 24.4185C16.4163 24.673 17.1846 24.6789 18.089 24.436C19.5963 24.0313 20.2731 23.5525 20.1192 22.9997C20.0204 22.6443 19.6749 22.4506 19.0828 22.4186C18.4853 22.3669 17.4054 22.4447 15.8431 22.652C10.4712 23.3731 7.2744 21.8976 6.2526 18.2253C5.69226 16.2115 6.08039 14.3462 7.41698 12.6293C8.77366 10.907 10.8287 9.67617 13.582 8.93682ZM27.0198 0.866662C29.7821 0.887749 31.4735 1.18513 32.6886 2.30735C34.4266 3.91212 34.5104 6.57771 34.6779 11.9089L34.9148 19.4478V19.4493L34.93 19.9346C35.0043 22.3231 35.05 24.1535 34.9054 25.5942C34.6127 24.1873 34.0984 22.5333 33.4968 20.5989L33.4919 20.5832L29.2687 7.00676C28.5696 4.75875 27.9886 2.89048 27.3213 1.46865C27.2252 1.26312 27.125 1.06244 27.0198 0.866662Z" fill="#BEAED2"/>
</svg>
